<?xml version="1.0" encoding="utf-8"?>
<!-- Generator: Adobe Illustrator 22.1.0, SVG Export Plug-In . SVG Version: 6.00 Build 0)  -->
<svg version="1.1" id="レイヤー_1" xmlns="http://www.w3.org/2000/svg" xmlns:xlink="http://www.w3.org/1999/xlink" x="0px"
	 y="0px" viewBox="0 0 170 72" style="enable-background:new 0 0 170 72;" xml:space="preserve">
<style type="text/css">
	.st0{fill:#FE5226;}
</style>
<g id="obj">
	<g>
		<path class="st0" d="M24.1,36.4h14.7c0.2-5.8,1.5-10.9,3.2-15.1C36.2,22,31,23,26.6,24.1C25.1,27.7,24.2,31.8,24.1,36.4z"/>
		<path class="st0" d="M26.4,51.9C30.8,53,36,54,41.8,54.8c-1.6-4.2-2.9-9.1-3.1-14.9H24C24.2,44.3,25,48.4,26.4,51.9z"/>
		<path class="st0" d="M38.6,65.4c5.1,2.8,10.3,3.8,13,4.1c-1.3-1.3-2.9-3-4.5-5.2c-1.2-1.6-2.4-3.6-3.6-5.9
			c-5.6-0.6-10.7-1.5-15-2.4C30.8,59.9,34.2,63,38.6,65.4z"/>
		<path class="st0" d="M56.5,69.3c1.4-1.1,4.2-3.5,6.9-7.2c0.8-1.1,1.5-2.2,2.2-3.4c-2.9,0.2-5.9,0.3-9,0.3c-3.1,0-6.1-0.1-9-0.3
			c0.7,1.1,1.4,2.3,2.2,3.4C52.4,65.8,55.2,68.2,56.5,69.3z"/>
		<path class="st0" d="M28.7,20c4.4-0.9,9.4-1.8,14.9-2.4c1.1-2.2,2.3-4,3.4-5.6c1.5-2.1,3-3.8,4.3-5.1c-2.8,0.4-7.8,1.3-12.7,4.1
			C34.4,13.3,31.1,16.3,28.7,20z"/>
		<path class="st0" d="M82.8,12.8c2.3,2.2,4.4,4.9,6.1,8.2c2.6,0.6,4.8,1.3,6.5,1.8c-0.7-0.9-1.5-1.8-2.4-2.6
			C90.2,17.3,86.8,14.8,82.8,12.8z"/>
		<path class="st0" d="M92.6,36.4h8.5c-0.3-3.1-1.1-6.1-2.6-9c-1.4-0.5-4.1-1.4-7.9-2.4C91.7,28.3,92.4,32,92.6,36.4z"/>
		<path class="st0" d="M56.6,55.7c3.8,0,7.4-0.2,10.9-0.5c2.2-4.7,3.4-9.9,3.6-15.4H42.2c0.2,5.5,1.4,10.6,3.5,15.4
			C49.2,55.5,52.8,55.7,56.6,55.7z"/>
		<path class="st0" d="M67.4,20.9c-3.4-0.3-7-0.5-10.7-0.5c-3.7,0-7.4,0.2-10.8,0.5c-2.2,4.8-3.4,10-3.6,15.5h29
			C70.9,30.9,69.6,25.7,67.4,20.9z"/>
		<path class="st0" d="M56.4,6.9c-1.4,1.1-4.1,3.6-6.7,7.3c-0.7,1-1.4,2.1-2,3.1c2.9-0.2,5.9-0.3,8.9-0.3c3,0,5.9,0.1,8.8,0.3
			c-0.6-1-1.3-2.1-2.1-3.1C60.6,10.5,57.8,8,56.4,6.9z"/>
		<path class="st0" d="M84.7,56c-4.4,0.9-9.5,1.8-15,2.4c-1.2,2.3-2.5,4.3-3.7,5.9c-1.6,2.1-3.2,3.9-4.5,5.2
			c2.7-0.3,7.9-1.3,13.1-4.1C79,63,82.3,59.9,84.7,56z"/>
		<path class="st0" d="M30.3,63.6c-2.4-2.3-4.6-5.1-6.3-8.7c-2.6-0.7-4.9-1.3-6.7-1.9c0.8,1.1,1.8,2.2,2.8,3.2
			C22.9,59.1,26.4,61.6,30.3,63.6z"/>
		<path class="st0" d="M95.9,53.1c-1.8,0.6-4.1,1.2-6.7,1.8c-1.7,3.6-4,6.4-6.4,8.7c3.9-2,7.4-4.4,10.2-7.3
			C94.1,55.3,95,54.2,95.9,53.1z"/>
		<path class="st0" d="M20.6,39.8h-8.6c0.2,3,1,5.9,2.4,8.7c1.5,0.5,4.2,1.4,8,2.5C21.4,47.7,20.7,44,20.6,39.8z"/>
		<path class="st0" d="M92.6,39.8c-0.1,4.3-0.8,8-1.8,11.2c3.7-1,6.5-1.9,8-2.4c1.4-2.8,2.2-5.8,2.4-8.8H92.6z"/>
		<path class="st0" d="M66,12c1.2,1.6,2.4,3.4,3.5,5.6C75,18.2,80.1,19,84.4,20c-2.4-3.7-5.6-6.7-9.8-9c-4.9-2.7-10-3.7-12.7-4.1
			c-0.1,0-0.2,0-0.3,0C62.9,8.3,64.5,9.9,66,12z"/>
		<path class="st0" d="M89.2,36.4c-0.2-4.6-1.1-8.8-2.6-12.4c-4.3-1-9.5-2-15.3-2.7c1.8,4.2,3.1,9.3,3.3,15.1H89.2z"/>
		<path class="st0" d="M89.2,39.8H74.5c-0.2,5.8-1.5,10.8-3.1,14.9c5.8-0.7,11-1.7,15.4-2.8C88.2,48.4,89,44.4,89.2,39.8z"/>
		<path class="st0" d="M20.6,36.4c0.2-4.3,0.9-8,2-11.3c-3.7,1-6.5,1.9-8,2.5c-1.4,2.8-2.3,5.8-2.5,8.8L20.6,36.4L20.6,36.4z"/>
		<path class="st0" d="M17.5,23c1.8-0.6,4.1-1.2,6.7-1.9c1.7-3.5,3.9-6.3,6.3-8.5C25.2,15.4,20.7,18.9,17.5,23z"/>
		<path class="st0" d="M160.5,26.4c-0.2,0.2-0.4,0.3-0.6,0.4c-0.6,0.1-1.2,0-1.8-0.1c-0.6,0-1.2,0.1-1.6,0.5
			c-3.2,3.3-6.1,5.9-9.4,8.5c-1.2,0.9-2.6-1-4.1-1.5c-1-0.4-0.9,0.5-0.9,0.7c0.1,1.2,0.4,1.5,1,2.6c0.4,0.8,0.9,1.8,1.7,1.5
			c7.1-3,13.1-6.7,17.8-10.3c2-1.5,1.7-2.6,1.1-3C162.6,24.8,161.4,25.7,160.5,26.4z"/>
		<path class="st0" d="M105.9,68.6h-1.3v-3.3h1.2c1.5,0,2.1,0.5,2.1,1.6C107.9,68,107.3,68.6,105.9,68.6z M104.7,60.3h1.1
			c1.4,0,1.8,0.4,1.8,1.4c0,1-0.5,1.5-1.8,1.5h-1.2V60.3 M108.3,64.1c1.2-0.4,1.8-1.3,1.8-2.7c0-2.1-1.3-3.3-3.6-3.3h-4.3v12.5h4.2
			c2.6,0,3.9-1.2,3.9-3.5C110.4,65.6,109.7,64.6,108.3,64.1"/>
		<polygon class="st0" points="122.8,58.2 115.5,58.2 115.5,70.7 122.8,70.7 122.8,68.5 117.9,68.5 117.9,65.1 122.3,65.1 122.3,63 
			117.9,63 117.9,60.3 122.8,60.3 		"/>
		<path class="st0" d="M132.3,61.2l1.1,4.8h-2.1L132.3,61.2z M133.7,58.2h-2.7l-3.3,12.5h2.5l0.6-2.6h3.1l0.6,2.6h2.5L133.7,58.2"/>
		<polygon class="st0" points="152.3,58.2 152.3,70.7 150.1,70.7 150,63.7 148.2,70.7 146.2,70.7 144.3,63.8 144.3,70.7 142.1,70.7 
			142.1,58.2 145,58.2 147.2,66.6 149.4,58.2 		"/>
		<path class="st0" d="M165.9,61.8c0,0,0-0.1,0-0.1c0-2.4-1.4-3.9-3.9-3.9c-2.5,0-4.1,1.5-4.1,3.8c0,1.7,0.8,2.7,2.9,3.5l1.5,0.6
			c0.9,0.4,1.4,0.9,1.4,1.6c0,0.9-0.7,1.5-1.7,1.5c-1.3,0-1.8-0.7-1.9-2.2h-2.4c0,0.1,0,0.2,0,0.3c0,2.5,1.6,4,4.3,4
			c2.5,0,4.2-1.6,4.2-3.9c0-1.8-0.9-2.8-3-3.6l-1.4-0.5c-0.9-0.4-1.3-0.8-1.3-1.5c0-0.8,0.7-1.4,1.6-1.4c1,0,1.7,0.7,1.7,1.7
			c0,0,0,0.1,0,0.1L165.9,61.8L165.9,61.8z"/>
		<path class="st0" d="M119,8.4c10.3,1.1,18.4,3.5,22.8,6.7c1.9,1.4,3,2.9,3.2,4.5c0,0.2,0.1,0.5,0.1,0.7c0,6.9-15,16.8-37.4,23
			c3-1.2,5.8-2.7,8.4-4.2c7.6-4.8,11.7-10.4,11.1-15.6c-0.3-2.8-2-5.5-4.9-7.7c-3.8-3-9.4-5.3-16.3-6.6c-3.2-0.6-6.7-1-10.2-1.2
			C103.8,7.5,111.7,7.6,119,8.4z M169,15.8c-0.3-2.3-1.8-4.4-4.3-6.2c-11.9-8.8-47-11.2-83.4-5.7c-2.8,0.4-5.6,0.9-8.4,1.4
			c2,0.5,4,1.1,5.9,1.9c2.9,1.1,5.6,2.4,8.1,3.9c15.5-1.1,27.8,2.6,33.4,7c2.3,1.8,3.6,3.8,3.8,5.8c0,0.2,0,0.4,0,0.7
			c0,3.8-3.6,8.2-9.7,12.1c-3,1.8-6.3,3.5-10,4.8c-0.4,3.3-1.4,6.4-3,9.4c14.2-2.8,27.7-6.7,39-11.3l-1.2-3.1
			c-7.2,2.9-15.4,5.6-24.1,7.8c6-2,11.5-4.3,16.3-6.8C143,31.5,148.9,25,148,19.1c-0.4-2.4-1.9-4.6-4.5-6.5
			c-6.9-5.1-20.6-7.9-36.9-8c9.2-0.5,18-0.5,26.1,0.1c14,1,24.9,3.8,30,7.5c1.8,1.3,2.8,2.7,3,4.1c0.2,1.6-0.5,3.5-2.3,5.6l2.5,2.1
			C168.4,21.2,169.4,18.4,169,15.8"/>
		<path class="st0" d="M7.3,44.8c-1.8-1.3-2.8-2.7-3-4c-0.3-2.3,1.4-5.1,4.8-8.1c0.4-1.9,1-3.8,1.9-5.6C3.9,32,0.4,36.9,1.1,41.3
			c0.3,2.3,1.8,4.4,4.3,6.2c1.7,1.3,3.9,2.4,6.4,3.4c-0.8-1.4-1.4-2.9-1.9-4.4C8.9,45.9,8,45.3,7.3,44.8z"/>
	</g>
</g>
</svg>
